<?xml version="1.0" standalone="no"?>
<!DOCTYPE svg PUBLIC "-//W3C//DTD SVG 20010904//EN"
 "http://www.w3.org/TR/2001/REC-SVG-20010904/DTD/svg10.dtd">
<svg version="1.0" xmlns="http://www.w3.org/2000/svg"
 width="552.000000pt" height="552.000000pt" viewBox="0 0 552.000000 552.000000"
 preserveAspectRatio="xMidYMid meet">
<metadata>
Created by potrace 1.11, written by Peter Selinger 2001-2013
</metadata>
<g transform="translate(0.000000,552.000000) scale(0.100000,-0.100000)"
fill="#000000" stroke="none">
<path d="M1860 5492 c-8 -9 -31 -37 -50 -62 -19 -25 -37 -47 -40 -50 -6 -6
-96 -114 -150 -181 -19 -23 -73 -88 -118 -143 -46 -56 -99 -119 -117 -141 -18
-22 -119 -145 -224 -273 l-191 -234 27 -33 c32 -37 31 -36 138 -170 44 -55 85
-105 90 -111 6 -6 24 -28 40 -50 51 -65 397 -497 424 -530 29 -34 32 -39 111
-139 79 -100 76 -98 100 -83 11 7 20 16 20 19 0 4 21 33 48 66 26 33 61 76 77
97 24 31 147 185 308 388 12 16 30 38 41 50 10 13 30 39 45 58 14 19 28 37 31
40 3 3 39 48 80 100 41 52 79 100 85 106 5 6 21 26 35 44 14 18 46 59 72 92
l48 59 -179 217 c-216 264 -466 571 -610 749 -58 73 -111 132 -116 133 -6 0
-17 -8 -25 -18z"/>
<path d="M3720 4813 c-67 -33 -130 -123 -130 -188 0 -68 73 -162 152 -197 15
-7 28 -16 28 -19 0 -3 -13 -30 -28 -60 -46 -86 -67 -180 -67 -299 0 -58 3
-125 7 -149 26 -152 27 -453 3 -676 -5 -49 -15 -127 -21 -173 l-7 -44 -60 64
c-89 94 -375 395 -427 448 -85 89 -348 365 -375 394 l-27 30 -35 -40 c-19 -21
-62 -69 -95 -106 -33 -37 -68 -76 -77 -86 -9 -11 -42 -48 -73 -83 -31 -35 -65
-73 -75 -85 -38 -44 -139 -157 -168 -188 -16 -18 -55 -61 -85 -96 -30 -35 -66
-75 -80 -90 -14 -15 -50 -56 -80 -90 -30 -35 -65 -75 -78 -89 l-23 -26 -72 76
c-39 41 -106 111 -147 155 -127 136 -343 366 -380 404 -19 20 -89 95 -155 165
-126 135 -163 171 -172 168 -3 0 -26 -30 -52 -66 -25 -36 -78 -109 -118 -164
-116 -158 -326 -445 -493 -673 -85 -116 -172 -235 -193 -263 l-37 -53 2 -1343
3 -1344 50 64 c27 35 52 66 55 69 3 3 30 36 60 75 30 38 62 79 72 90 9 11 65
81 125 156 59 76 122 154 138 175 17 20 122 153 234 293 111 141 215 271 230
290 14 19 31 39 36 45 6 6 53 65 105 131 52 66 97 122 100 125 3 3 39 48 80
100 41 52 83 104 92 114 18 20 18 20 19 0 0 -10 1 -408 1 -883 l1 -864 26 29
c32 37 73 88 103 127 13 17 55 69 93 117 39 48 81 102 95 120 14 18 66 84 115
145 50 62 100 125 113 142 12 16 33 43 46 59 14 16 72 90 131 164 59 74 123
155 143 179 21 24 44 54 52 65 8 12 22 30 32 41 9 11 73 92 143 180 70 88 134
169 143 180 10 11 42 52 72 90 30 39 57 72 60 75 3 3 16 18 28 34 l22 29 1
-44 c1 -24 3 -55 4 -69 1 -14 5 -79 9 -145 4 -66 8 -145 11 -175 2 -30 6 -102
10 -160 3 -58 8 -132 10 -165 2 -33 7 -107 10 -165 13 -214 27 -446 30 -490 7
-105 18 -299 19 -327 1 -18 4 -32 8 -30 5 2 148 200 346 482 38 54 212 301
246 350 12 16 26 35 31 41 6 7 42 58 80 113 39 56 138 197 221 314 83 116 226
320 319 452 92 132 180 256 195 275 14 19 46 64 70 100 24 36 50 71 57 78 7 8
18 23 24 33 6 11 67 100 136 197 277 390 278 391 282 492 4 89 5 87 -264 505
-46 72 -118 184 -160 250 -42 66 -109 172 -150 235 -41 63 -72 116 -70 118 2
2 240 4 530 5 l525 0 -6 36 c-12 67 -65 206 -104 272 -109 185 -255 258 -585
294 -33 4 -64 8 -70 9 -5 0 -22 18 -37 38 -84 113 -292 112 -531 -3 l-64 -30
-61 59 c-97 93 -179 121 -252 85z"/>
</g>
</svg>
